<?xml version="1.0" standalone="no"?>
<!DOCTYPE svg PUBLIC "-//W3C//DTD SVG 20010904//EN"
 "http://www.w3.org/TR/2001/REC-SVG-20010904/DTD/svg10.dtd">
<svg version="1.0" xmlns="http://www.w3.org/2000/svg"
 width="128.000000pt" height="128.000000pt" viewBox="0 0 128.000000 128.000000"
 preserveAspectRatio="xMidYMid meet">
<metadata>
Created by potrace 1.14, written by Peter Selinger 2001-2017
</metadata>
<g transform="translate(0.000000,128.000000) scale(0.100000,-0.100000)"
fill="#000000" stroke="none">
<path d="M1007 922 c-13 -15 -17 -39 -17 -110 l0 -92 -65 0 c-64 0 -65 0 -66
28 -1 48 -50 133 -91 156 -35 19 -40 20 -65 6 -35 -20 -40 -50 -13 -75 18 -16
24 -17 41 -7 18 11 21 9 33 -20 7 -18 16 -47 19 -63 5 -29 4 -31 -59 -55 -76
-28 -94 -46 -104 -99 -21 -115 108 -193 191 -116 38 36 59 82 59 130 l0 35 60
0 60 0 0 -47 c0 -27 -5 -68 -11 -92 -5 -24 -7 -52 -4 -62 7 -21 35 -32 58 -23
20 7 37 85 37 164 l0 60 64 0 c98 0 119 17 76 60 -16 16 -33 20 -80 20 l-60 0
0 74 c0 41 5 78 10 81 15 9 12 23 -10 45 -25 25 -42 25 -63 2z m-227 -347
c-12 -35 -35 -55 -64 -55 -12 0 -16 10 -16 35 0 33 4 38 43 55 47 22 54 16 37
-35z"/>
<path d="M206 888 c-69 -40 -146 -161 -146 -231 0 -55 50 -166 95 -213 11 -11
36 -40 55 -64 19 -24 44 -52 55 -61 57 -50 69 -59 80 -59 13 0 35 20 35 32 0
5 -36 47 -81 94 -144 153 -173 212 -149 302 15 55 82 132 116 132 36 0 49 25
30 55 -18 27 -56 33 -90 13z"/>
<path d="M522 828 c-34 -34 7 -126 46 -102 26 16 27 69 3 93 -24 24 -32 26
-49 9z"/>
<path d="M402 808 c-34 -34 7 -126 46 -102 26 16 27 69 3 93 -24 24 -32 26
-49 9z"/>
</g>
</svg>
